<svg width="24" height="28" viewBox="0 0 24 28" fill="none" xmlns="http://www.w3.org/2000/svg">
<path d="M16 3.33341H2.66667V24.6667H21.3333V8.66675H16V3.33341ZM0 1.98941C0 1.25875 0.596 0.666748 1.332 0.666748H17.3333L24 7.33342V25.9907C24.0012 26.1658 23.968 26.3395 23.9021 26.5017C23.8362 26.6639 23.739 26.8116 23.6161 26.9363C23.4931 27.061 23.3468 27.1602 23.1855 27.2284C23.0242 27.2965 22.8511 27.3322 22.676 27.3334H1.324C0.973837 27.331 0.63869 27.1909 0.390957 26.9434C0.143224 26.6959 0.00279287 26.3609 0 26.0107V1.98941ZM10.6667 12.6667V8.66675H13.3333V12.6667H17.3333V15.3334H13.3333V19.3334H10.6667V15.3334H6.66667V12.6667H10.6667Z" fill="#E60000"/>
</svg>
